<svg xmlns="http://www.w3.org/2000/svg" width="786" height="588"><path fill-rule="evenodd" fill="#FFF" d="M45 550.999c47.734-74.481 109.908-195.544-45-247 155.36-56.598 116.165-124.569 36.999-263 202.902 133.727 224.746 70.413 239-37.999C399.23 178.179 425.934 102.35 510 0c17.21 143.778 105.515 112.796 215 53.999-69.765 87.628-47.422 166.522 60.999 187.001C643.135 345.569 649.703 404.269 749 577c-178.468-118.122-199.546-111.149-251 7.999-100.085-96.518-97.072-114.27-196 3-30.536-126.589-53.391-122.405-257-37"/></svg>